<svg xmlns="http://www.w3.org/2000/svg" xmlns:xlink="http://www.w3.org/1999/xlink" width="900" height="1050"><ellipse cx="450" cy="525" fill="#f2cf04" stroke="red" stroke-width="20px" rx="440" ry="515"/><g transform="matrix(2.5280121,0,0,2.5280121,199.19088,249.01138)"><path d="m 0,0 c 0,0 4.98,-3.39 4.98,-14.44 v -114.83 l -8.04,6.71 v 88.65 l -2.7,-2.37 v -84.01 l -7.5,6.25 v 72.56 l -2.71,-1.53 v -68.77 l -7.72,6.45 v 58.74 l -2.7,-1 v -55.48 l -8.04,6.71 v 46.42 l -2.71,-0.55 v -43.6 l -8.13,6.78 0.03,36.02 h -0.69 l -5.54,-33.36 21.8,-22.74 h -5.99 l 8.85,-13.76 c 1.93,0.96 8.85,4.4 12.28,6.4 l 3.92,-3.87 c 0.38,-1.75 0.32,-5.8 0.32,-5.8 0,-0.11 -0.07,-0.14 -0.15,-0.07 l -3.49,2.96 -0.05,-0.74 c -2.78,-0.65 -6.61,-1.69 -8.6,-2.24 1.14,-0.77 3.07,-2.02 5.43,-3.37 2.41,-1.37 5.26,-2.86 8.17,-4.03 -0.02,-0.1 -0.11,-0.53 -0.37,-1.22 -0.46,-1.24 -1.4,-3.31 -3.3,-5.89 l -1.74,-2.29 c -0.06,-0.08 -0.1,-0.07 -0.1,0.04 l 0.14,6.41 -2.19,-1.63 c -3.17,3.62 -7.2,6.97 -9.12,8.5 0.22,-2.94 0.74,-9.76 1.18,-14.01 0,0 -2,-1.73 -7.24,-3.59 0,0 -0.14,-0.05 -0.09,0.1 l 1.02,2 v 0 c 0,0 0.75,1.52 1.2,3.18 l -3.6,-0.3 c 0.66,2.55 2.27,8.99 2.76,13.22 -0.13,-0.05 -0.26,-0.1 -0.41,-0.17 -1.71,-0.72 -4.75,-2.02 -7.72,-3.43 l -0.01,0.01 h -0.01 l -0.85,0.67 -0.49,0.4 0.21,-5.18 c 0,-0.1 -0.06,-0.14 -0.13,-0.07 0,0 -3.24,2.87 -4.09,3.61 0.01,1.2 -0.3,6.61 -0.3,6.61 4.14,0.55 9.52,1.56 11.9,2.02 l -10.06,9.38 v -0.1 -6.49 c 0,0 -9.12,13.9 -10.27,15.57 -0.13,-1.4 -0.78,-10.17 0.65,-19.83 1.6,-10.85 5.1,-20.29 18.23,-18.72 -5.01,-11.42 -17.49,-6.93 -19.69,-4.22 -3.92,-6.96 -8.17,-9.59 -8.22,-9.62 -0.04,0.03 -4.28,2.66 -8.2,9.62 -2.2,-2.71 -14.67,-7.2 -19.69,4.22 13.12,-1.57 16.62,7.87 18.22,18.72 1.43,9.66 0.78,18.43 0.65,19.83 -1.14,-1.67 -10.26,-15.57 -10.26,-15.57 v 6.59 l -10.07,-9.38 c 2.38,-0.46 7.76,-1.47 11.91,-2.02 0,0 -0.32,-5.41 -0.31,-6.61 -0.85,-0.74 -4.09,-3.61 -4.09,-3.61 -0.06,-0.07 -0.13,-0.03 -0.13,0.07 l 0.22,5.18 -0.5,-0.4 -0.85,-0.67 c 0,0 0,0 0,0 l -0.02,-0.01 c -2.96,1.41 -6.01,2.71 -7.72,3.43 -0.14,0.07 -0.28,0.12 -0.4,0.17 0.48,-4.23 2.09,-10.67 2.75,-13.22 l -3.59,0.3 c 0.44,-1.66 1.2,-3.18 1.2,-3.18 h 0.01 l 1,-2 c 0.05,-0.15 -0.08,-0.1 -0.08,-0.1 -5.25,1.86 -7.25,3.59 -7.25,3.59 0.44,4.25 0.97,11.07 1.2,14.01 -1.94,-1.53 -5.97,-4.88 -9.14,-8.5 l -2.18,1.63 0.14,-6.41 c 0,-0.11 -0.05,-0.12 -0.11,-0.04 l -1.74,2.29 c -1.9,2.58 -2.84,4.65 -3.29,5.89 -0.26,0.69 -0.36,1.12 -0.38,1.22 2.91,1.17 5.76,2.66 8.17,4.03 2.36,1.35 4.3,2.6 5.44,3.37 -1.99,0.55 -5.83,1.59 -8.61,2.24 l -0.05,0.74 -3.49,-2.96 c -0.08,-0.07 -0.14,-0.04 -0.15,0.07 0,0 -0.06,4.05 0.32,5.8 l 3.92,3.87 c 3.43,-2 10.36,-5.44 12.29,-6.4 l 8.86,13.76 h -6 l 21.8,22.74 -5.55,33.36 h -0.69 l 0.04,-36.02 -8.14,-6.78 v 43.6 l -2.7,0.55 v -46.42 l -8.04,-6.71 v 55.48 l -2.71,1 v -58.74 l -7.71,-6.45 v 68.77 l -2.72,1.53 v -72.56 l -7.5,-6.25 v 84.01 l -2.7,2.37 v -88.65 l -8.03,-6.71 v 114.83 c 0,11.05 4.97,14.44 4.97,14.44 0,0 -5.99,2.78 -6.07,8.45 3.09,-1.94 6.75,-2.92 9.46,-2.43 7.45,1.37 19.76,7.82 27.52,-6.58 -3.83,-10.07 -13.9,-11.37 -20.03,-4.05 -3.99,-5.65 -2.62,-16.08 8.65,-23.15 10.62,-6.66 23.65,-7.03 25.69,-6.99 0.19,2.06 0.39,8.9 6.47,14.73 2.72,2.63 4.99,8.05 4.9,11.69 0,0 -8.84,-1.03 -12.58,3.91 -0.01,0.03 -0.01,0.04 0,0.06 0.01,0.01 0.03,0.02 0.04,0.02 0.86,-0.17 1.43,-0.22 2.15,-0.25 -1.42,0.62 -6.49,2.4 -7.88,6.98 -0.01,0.06 0.04,0.09 0.07,0.07 6.71,-4.19 13.75,-5.09 16.32,-5.39 0.37,-0.04 -0.03,0.68 -0.07,0.74 -1.66,2.63 -3.53,3.52 -5.38,3.52 -2.22,-0.01 -2.98,-1.79 -2.98,-1.79 -1.06,0.78 -3.26,2.55 -3.39,7.05 -0.14,4.87 3.27,7.17 7.06,7.1 1.69,-0.02 3.43,-0.4 4.6,-1.03 0.03,0.93 0.43,1.62 0.43,1.62 0,0 3.21,-1.04 6.76,-2.53 5.57,-2.34 11.14,-4.56 15.65,-4.56 0.21,0 0.34,-0.17 0.21,-0.33 -2.19,-2.65 -6.08,-3.5 -6.08,-3.5 6.03,-14.25 6.41,-30.54 6.66,-38.1 0,0 0,0 0,0 0.01,0 0.01,0 0.01,-0.01 2.17,-0.03 15.1,0.37 25.65,6.99 11.27,7.07 12.64,17.5 8.65,23.15 -6.13,-7.32 -16.18,-6.02 -20.03,4.05 7.76,14.4 20.07,7.95 27.52,6.58 C -0.67,5.53 2.98,6.51 6.07,8.45 5.99,2.78 0,0 0,0" transform="matrix(1.3333333,0,0,-1.3333333,181.45866,25.577329)"/><path fill="#ff0000" d="m -41.46,119.25 c 1.78,0 3.95,0.27 4.41,0.47 0.29,0.12 0.13,0.19 -0.03,0.21 -6.85,0.71 -11.35,2.31 -14.96,4.23 1.51,-1.77 4.45,-3.57 8.7,-4.74 0.45,-0.13 1.13,-0.17 1.88,-0.17 m 9.18,-1.66 c -1.21,-0.48 -4.44,-0.92 -6.1,-0.92 -3.91,0 -6.51,1.45 -6.91,1.62 4.28,-0.5 8.51,0.03 10.03,0.86 -1.99,5.34 -5.37,7.43 -8,7.43 -1.23,0 -2.31,-0.46 -3,-1.26 -1.42,1.2 -2.03,3.64 -2.06,5.15 -0.09,4.53 2.93,5.84 5.76,5.84 2,0 3.92,-0.66 4.56,-1.28 -0.04,-2.94 0.72,-5.46 2.42,-8.52 1.4,-2.52 3,-4.62 3.3,-8.92" transform="matrix(1.3333333,0,0,-1.3333333,140.32,190.81999)"/><path id="a" fill="#ff0000" d="m -61.94,0.06 c -0.39,0.08 -0.53,0.56 -0.24,0.83 l 12.06,11.25 v 4.38 h -5.23 L -64.94,1.61 c -0.17,-0.27 -0.52,-0.37 -0.81,-0.23 v 0 c -0.36,0.18 -7.74,3.81 -12,6.2 -0.47,-0.46 -1,-0.99 -1,-0.99 l 1.2,-0.01 0.26,-3.91 c 3.87,-0.94 8.96,-2.38 9.02,-2.39 l 0.3,-0.09 c 0.4,-0.11 0.49,-0.63 0.15,-0.86 l -0.25,-0.19 c -0.07,-0.05 -6.2,-4.4 -13.11,-7.5 1.2,-0.15 2.42,-0.31 2.42,-0.31 0,0 0.64,-0.57 2.6,-2.18 4.3,4.66 9.61,8.66 9.67,8.69 l 0.35,0.27 c 0.3,0.22 0.72,-0.02 0.7,-0.39 l -0.03,-0.44 c -0.01,-0.09 -0.55,-7.57 -1.07,-13.17 l 1.03,1.04 4.5,-0.37 c -0.87,3.44 -2.18,9.15 -2.44,12.71 l -0.02,0.19 c -0.02,0.38 0.36,0.67 0.72,0.53 l 0.17,-0.08 c 0.05,-0.02 4.21,-1.71 8.43,-3.69 l 3.48,2.81 0.93,-0.82 0.07,1.48 c -5.34,0.75 -11.92,2.07 -11.99,2.09 z m 10.39,-4.78 -0.18,-4.35 2.16,1.91 0.05,2.08 -1.17,1.04 z m -11.13,-15.12 c 0,0 -0.81,1.59 -1.28,3.55 -0.04,0.17 -0.08,0.32 -0.08,0.32 l -1.12,0.1 c 0,0 -0.87,-0.95 -1.68,-1.86 1.18,-0.96 4.16,-2.11 4.16,-2.11 m -19.39,10.6 c 0.6,-1.9 3.01,-5.27 3.01,-5.27 l -0.17,4.9 c 0,0 -2.79,0.36 -2.84,0.37 m 3.73,13.15 -2.88,-2.44 c 0,0 0.03,1.92 0.23,3.25 0.35,0.4 0.65,0.76 0.65,0.76 l 1.85,0.11 z" transform="matrix(1.3333333,0,0,-1.3333333,140.32,190.81999)"/><use xlink:href="#a" transform="matrix(-1,0,0,1,198.42532,0)"/><path fill="#ffffff" d="m 0,0 c 0.34,-2.52 1.15,-4.55 1.39,-4.62 0.36,-0.11 2.7,1.77 3.1,2.39 0.14,0.21 -1.46,0.94 -1.61,0.66 C 2.48,-2.29 1.97,-3.33 1.72,-3.75 1.65,-3.88 1.51,-3.86 1.49,-3.69 1.39,-2.14 1.33,-1.25 1.27,-0.55 1.25,-0.37 -0.06,0.45 0,0" transform="matrix(1.3333333,0,0,-1.3333333,91.638664,12.235996)"/></g><path d="m 460.8,57.3 -0.4,3.2 c 1.2,0.5 2.1,0.9 2.7,1.4 0.7,0.5 1.1,1 1.4,1.7 0.3,0.7 0.4,1.6 0.3,2.6 -0,1 -0.1,2.3 -0.3,3.8 l -4.7,41.8 c -0.2,1.6 -0.4,2.8 -0.6,3.9 -0.2,1 -0.5,1.8 -1,2.4 -0.4,0.6 -1,1.1 -1.7,1.4 -0.7,0.3 -1.7,0.5 -2.9,0.7 l -0.4,3.2 25.5,2.8 0.4,-3.2 c -0.9,-0.3 -1.7,-0.7 -2.3,-1 -0.6,-0.4 -1.1,-0.8 -1.4,-1.3 -0.3,-0.5 -0.5,-1 -0.7,-1.6 -0.1,-0.6 -0.2,-1.4 -0.1,-2.4 0,-1 0.1,-2 0.3,-3.2 l 2.2,-19.3 1,0.1 c 1.2,0.1 2.1,0.4 2.7,0.8 0.6,0.4 1.2,1 1.8,1.9 0.6,0.9 1.3,2 2,3.5 l 6.1,12.3 c 1.4,2.8 2.3,4.7 2.8,5.7 0.4,1 0.7,1.8 0.8,2.3 0.1,0.5 0.1,1 0.1,1.5 -0.1,0.6 -0.3,1.1 -0.8,1.4 -0.4,0.3 -1.2,0.5 -2.3,0.5 l -0.4,3.2 26.3,2.9 0.4,-3.2 c -1,-0.4 -1.8,-0.8 -2.4,-1.2 -0.6,-0.4 -1.1,-1 -1.7,-1.7 -0.6,-0.7 -1.2,-1.7 -2,-2.9 -0.7,-1.3 -1.6,-2.9 -2.6,-5 L 494.7,88.8 511.1,74.1 c 2,-1.8 3.6,-3.1 4.8,-4 1.2,-0.9 2.3,-1.5 3.3,-1.9 0.9,-0.4 2,-0.6 3.3,-0.7 l 0.4,-3.3 -24.8,-2.8 -0.4,3.2 c 1.4,0.2 2.4,0.6 3.1,1.4 0.7,0.7 1,1.7 0.9,2.8 -0.1,1.1 -0.5,2.1 -1,3.2 -0.5,1 -1.5,2.3 -2.9,3.9 -1.3,1.5 -3.5,3.7 -6.5,6.5 -3,2.8 -5,4.5 -6,5.3 -1,0.7 -2,1.2 -2.9,1.4 -0.9,0.2 -2.1,0.3 -3.6,0.1 l -1,-0.1 1.9,-17.3 c 0.2,-1.8 0.4,-3.2 0.7,-4.1 0.2,-0.9 0.5,-1.6 0.9,-2.2 0.4,-0.5 0.9,-1 1.6,-1.3 0.7,-0.3 1.7,-0.6 3.1,-0.8 l 0.4,-3.2 z m -18.1,0.9 -25.6,1.4 0.2,3.2 c 1.3,0.3 2.2,0.6 2.9,0.9 0.7,0.3 1.3,0.9 1.7,1.5 0.4,0.6 0.7,1.4 0.8,2.4 0.2,1 0.3,2.3 0.4,3.8 l 2.4,42.1 c 0.1,1.6 0.1,2.9 0.1,3.9 -0,1 -0.2,1.9 -0.5,2.6 -0.3,0.7 -0.8,1.2 -1.5,1.6 -0.7,0.4 -1.6,0.8 -2.8,1.2 l 0.2,3.2 25.6,-1.4 -0.2,-3.2 c -1,-0.2 -1.8,-0.4 -2.4,-0.6 -0.7,-0.3 -1.2,-0.6 -1.6,-1 -0.4,-0.4 -0.7,-0.9 -0.9,-1.5 -0.2,-0.6 -0.4,-1.4 -0.5,-2.4 -0.1,-1 -0.2,-2 -0.3,-3.2 L 438.1,70.8 c -0.1,-1.8 -0.1,-3.2 -0,-4.2 0.1,-0.9 0.3,-1.7 0.6,-2.3 0.3,-0.6 0.7,-1.1 1.3,-1.5 0.6,-0.5 1.6,-0.9 2.9,-1.3 z m -61.8,6.9 -25.1,5.1 0.6,3.2 c 1.3,0.1 2.3,0.2 3,0.5 0.8,0.2 1.4,0.6 1.8,1.2 0.5,0.6 0.9,1.4 1.1,2.4 0.3,1 0.6,2.3 0.9,3.8 l 8.4,41.2 c 0.3,1.5 0.5,2.8 0.6,3.9 0.1,1 0.1,1.9 -0.2,2.6 -0.2,0.7 -0.6,1.3 -1.2,1.8 -0.6,0.5 -1.4,1.1 -2.6,1.6 l 0.6,3.2 45.6,-9.3 -2.9,-19.5 -6.6,1.3 c -0,1.8 -0.1,3.7 -0.3,5.7 -0.2,2 -0.6,3.7 -1.1,5.1 -0.6,1.3 -1.3,2.4 -2.3,3.2 -1,0.8 -2.4,1.4 -4.3,1.8 l -9.3,1.9 -9.7,-47.7 c -0.3,-1.5 -0.5,-2.8 -0.6,-3.8 -0.1,-1 -0,-1.9 0.2,-2.6 0.3,-0.7 0.7,-1.3 1.3,-1.8 0.6,-0.5 1.4,-1.1 2.5,-1.6 z m 182.9,10.5 -1.3,3 c 1,0.8 1.7,1.5 2.2,2.2 0.5,0.6 0.8,1.3 0.8,2 0.1,0.7 -0.1,1.6 -0.4,2.6 -0.3,1 -0.8,2.2 -1.4,3.6 L 547.3,127.6 c -0.6,1.4 -1.2,2.6 -1.7,3.5 -0.5,0.9 -1,1.6 -1.6,2.1 -0.6,0.5 -1.2,0.7 -2,0.8 -0.8,0.1 -1.8,0 -3,-0.2 l -1.3,3 20.4,8.7 c 4.8,2.1 8.9,3.5 12.3,4.3 4,0.9 7.7,1.2 11.1,0.9 3.5,-0.3 6.7,-1.2 9.7,-2.8 3.3,-1.7 6.3,-4.2 8.9,-7.4 2.7,-3.2 5,-7.2 7,-11.9 1.6,-3.9 2.7,-7.5 3.2,-10.9 0.5,-3.4 0.5,-6.6 -0.2,-9.6 -0.6,-3 -1.8,-5.9 -3.7,-8.7 -1.9,-2.8 -4.4,-5.3 -7.4,-7.5 -3,-2.2 -7,-4.4 -12,-6.5 z m -234.4,5.5 c -2,-0 -4.1,0.3 -6.4,0.8 -2.3,0.6 -5.1,1.5 -8.5,2.9 l -29.5,12.3 1.2,3 c 1.3,-0.2 2.3,-0.2 3.1,-0.1 0.8,0.1 1.5,0.4 2,0.8 0.6,0.5 1.1,1.2 1.6,2.1 0.5,0.9 1,2.1 1.6,3.5 l 16.2,38.9 c 0.6,1.4 1.1,2.7 1.4,3.7 0.3,1 0.4,1.8 0.3,2.6 -0.1,0.7 -0.3,1.4 -0.8,2 -0.5,0.6 -1.2,1.3 -2.2,2 l 1.2,3 27.8,-11.6 c 4.3,-1.8 7.7,-3.6 10.2,-5.4 2.5,-1.8 4.5,-3.9 6,-6.1 1.5,-2.3 2.2,-4.8 2.3,-7.4 0.1,-2.6 -0.5,-5.5 -1.7,-8.5 -1.5,-3.5 -3.8,-6.1 -7.1,-7.6 -3.2,-1.6 -7.2,-2.2 -12,-1.8 l -0.2,-0.4 c 6.8,-6.8 8.7,-13.6 5.9,-20.4 -1.1,-2.5 -2.5,-4.5 -4.3,-5.9 -1.8,-1.4 -3.9,-2.2 -6.1,-2.4 -0.6,-0.1 -1.3,-0.1 -1.9,-0.1 z m 250.8,7.8 c 0.8,0.3 2.2,0.8 4,1.6 3.9,1.6 6.8,4 8.8,6.9 2,3 3,6.6 2.9,11.1 -0.1,4.4 -1.3,9.4 -3.7,15.1 -2.2,5.2 -4.6,9.3 -7.2,12.5 -2.4,2.9 -5,4.9 -7.8,6.2 -1.7,0.8 -3.5,1.1 -5.5,1.2 -2.7,0 -5.6,-0.7 -8.9,-2.1 -2.2,-0.9 -3.5,-1.6 -4,-1.9 z M 319.9,90.1 c 1.7,0 3.3,0.5 4.7,1.5 1.6,1 2.9,2.8 3.9,5.3 1.2,2.8 1.7,5.2 1.4,7.2 -0.2,2 -1,3.7 -2.3,5.3 -1.4,1.6 -3.5,3 -6.5,4.3 l -6,2.5 -8.9,-21.5 c 1.9,-1 3.9,-1.9 6,-2.8 2.6,-1.1 5,-1.7 7,-1.8 0.3,-0 0.5,-0 0.8,-0 z m -51.9,16 -17.8,12.1 1.8,2.7 c 1.8,-0.6 3.1,-0.8 3.9,-0.7 0.8,0.1 1.6,0.6 2.3,1.3 0.7,0.7 1.8,2 3.1,4 l 17.5,25.8 c 2.7,3.9 4.4,7.1 5.2,9.5 0.8,2.3 0.9,4.5 0.3,6.5 -0.6,2 -2.3,4 -5,5.8 -2,1.4 -3.9,2.1 -5.6,2.3 -1.7,0.2 -3.4,-0.1 -4.9,-0.8 -1.6,-0.8 -3.1,-2 -4.5,-3.5 -1.5,-1.6 -2.9,-3.4 -4.3,-5.5 l -18.1,-26.7 c -1,-1.5 -1.7,-2.7 -2.2,-3.5 -0.4,-0.9 -0.7,-1.6 -0.7,-2.3 -0.1,-0.7 0.1,-1.3 0.3,-2 0.3,-0.7 0.9,-1.6 1.8,-2.6 l -1.8,-2.7 -21.2,14.4 1.8,2.7 c 1.2,-0.4 2.2,-0.7 3,-0.7 0.8,-0.1 1.5,0.1 2.2,0.4 0.7,0.3 1.3,0.9 1.9,1.7 0.7,0.8 1.4,1.8 2.3,3.1 l 17.7,26.2 c 2.4,3.6 4.8,6.3 7.2,8.1 2.4,1.7 4.9,2.9 7.7,3.4 2.7,0.5 5.7,0.2 8.9,-0.8 3.2,-1 6.7,-2.8 10.5,-5.4 2.6,-1.8 4.8,-3.6 6.7,-5.4 1.8,-1.8 3.3,-3.8 4.3,-5.9 1.1,-2.1 1.6,-4.3 1.7,-6.6 0.1,-2.3 -0.4,-4.8 -1.3,-7.4 -1,-2.6 -2.6,-5.6 -4.9,-9 l -17.1,-25.3 c -0.9,-1.3 -1.6,-2.4 -2,-3.3 -0.5,-0.9 -0.8,-1.7 -0.9,-2.5 -0.1,-0.8 0.1,-1.5 0.4,-2.2 0.3,-0.7 0.9,-1.5 1.7,-2.4 z m 369.2,3.5 -1.8,2.7 c 0.8,1 1.4,1.8 1.8,2.5 0.4,0.7 0.5,1.4 0.4,2.2 -0.1,0.7 -0.4,1.6 -0.9,2.5 -0.5,0.9 -1.2,2 -2,3.3 l -23.6,34.8 c -0.9,1.3 -1.6,2.3 -2.3,3.2 -0.6,0.8 -1.3,1.4 -2,1.7 -0.6,0.4 -1.4,0.5 -2.2,0.4 -0.8,-0.1 -1.7,-0.3 -2.9,-0.7 l -1.8,2.7 39.7,27 10.8,-14.2 -5.5,-3.8 c -1.6,1.4 -3,2.4 -4,3.1 -1.1,0.7 -2,1.2 -2.8,1.5 -0.8,0.4 -1.5,0.6 -2.4,0.8 -0.8,0.2 -1.6,0.3 -2.3,0.2 -0.7,-0.1 -1.4,-0.2 -2.2,-0.5 -0.7,-0.3 -1.6,-0.8 -2.5,-1.5 l -8.8,-5.9 14.6,-21.6 5.3,3.6 c 1.3,0.9 2.1,1.7 2.5,2.4 0.4,0.8 0.6,1.8 0.4,2.9 -0.1,1.1 -0.5,2.6 -1.2,4.4 l 4.6,3.1 11.1,-16.4 -4.6,-3.1 c -1.5,1.4 -2.8,2.3 -3.8,2.8 -1,0.5 -1.9,0.7 -2.8,0.6 -0.9,-0.1 -1.9,-0.6 -3.1,-1.4 l -5.3,-3.6 13.2,-19.4 8.8,6 c 2.1,1.4 3.4,2.7 3.9,3.8 0.5,1.1 0.8,2.3 0.8,3.6 0,1.3 -0.4,3.5 -1.2,6.7 l 5.5,3.8 8.7,-12.8 z m -306.5,7.5 c 1.2,-0 2.4,0.2 3.5,0.5 1.5,0.5 2.8,1.4 4,2.7 1.2,1.3 2.2,3 3.1,5.2 1.3,3.1 1.8,5.7 1.5,7.9 -0.3,2.2 -1.2,4 -2.8,5.5 -1.5,1.5 -3.7,2.8 -6.6,4 -2.3,1 -4.4,1.8 -6.2,2.4 l -9.9,-23.9 6.3,-2.6 c 2.3,-0.9 4.2,-1.5 5.9,-1.7 0.4,-0.1 0.8,-0.1 1.2,-0.1 z m 360.5,30.5 -2.2,2.3 c 0.7,1.1 1.1,2 1.3,2.8 0.2,0.8 0.3,1.5 0,2.2 -0.2,0.7 -0.6,1.5 -1.3,2.3 -0.7,0.8 -1.5,1.8 -2.6,2.9 l -22,22.7 c -3,3.1 -5.2,6 -6.4,8.7 -1.2,2.7 -1.8,5.4 -1.7,8.2 0.1,2.8 1,5.6 2.6,8.6 1.6,2.9 4.1,6 7.4,9.2 2.3,2.2 4.5,4 6.6,5.4 2.2,1.4 4.4,2.4 6.6,3 2.3,0.6 4.5,0.7 6.8,0.3 2.3,-0.4 4.6,-1.3 6.9,-2.8 2.4,-1.5 5,-3.7 7.8,-6.6 l 21.2,-21.9 c 1.1,-1.1 2,-2 2.8,-2.7 0.8,-0.7 1.5,-1.1 2.3,-1.3 0.7,-0.2 1.5,-0.3 2.2,-0 0.8,0.2 1.7,0.6 2.7,1.2 l 2.2,-2.3 -15.4,-15 -2.2,2.3 c 0.9,1.6 1.4,2.8 1.5,3.7 0,0.9 -0.2,1.7 -0.8,2.5 -0.5,0.8 -1.6,2.1 -3.3,3.9 l -21.7,22.4 c -3.3,3.4 -6,5.7 -8.2,7 -2.1,1.3 -4.2,1.8 -6.3,1.6 -2.1,-0.2 -4.3,-1.4 -6.7,-3.7 -1.7,-1.7 -2.9,-3.3 -3.4,-5 -0.5,-1.6 -0.6,-3.3 -0.2,-5 0.5,-1.7 1.3,-3.4 2.5,-5.2 1.2,-1.7 2.8,-3.5 4.5,-5.4 l 22.4,-23.1 c 1.3,-1.3 2.3,-2.3 3,-2.8 0.8,-0.6 1.4,-1 2.1,-1.2 0.6,-0.2 1.3,-0.2 2,-0.1 0.8,0.1 1.7,0.6 3,1.2 l 2.2,-2.3 z m -485.4,10.6 c -0.6,0 -1.2,0.1 -1.9,0.2 -5,0.8 -10.4,4 -16.3,9.8 l -20.3,19.8 2.3,2.3 c 1.1,-0.6 2.1,-1 2.8,-1.2 0.8,-0.2 1.5,-0.2 2.2,0 0.7,0.2 1.5,0.7 2.2,1.4 0.8,0.7 1.7,1.6 2.8,2.7 l 29.4,30.1 c 1.1,1.1 2,2.1 2.6,2.9 0.6,0.8 1.1,1.6 1.3,2.3 0.2,0.7 0.2,1.4 -0,2.2 -0.2,0.7 -0.7,1.6 -1.3,2.7 l 2.3,2.3 18.8,-18.4 -2.3,-2.3 c -1.2,0.8 -2.2,1.4 -3,1.6 -0.7,0.2 -1.4,0.3 -2.1,0.2 -0.6,-0.1 -1.3,-0.5 -2.1,-1 -0.8,-0.5 -1.9,-1.6 -3.4,-3.1 l -10.9,-11.2 c 1.5,-1.3 3.4,-3.1 5.7,-5.3 3.9,-3.8 6.6,-7.6 8.1,-11.3 1.4,-3.7 1.7,-7.4 0.9,-11 -0.9,-3.6 -2.8,-7 -5.8,-10.1 -3.7,-3.8 -7.8,-5.7 -12,-5.6 z m -7.5,11.6 c 1,0 2,0.3 3,0.7 2.1,0.8 4.3,2.3 6.6,4.8 2.4,2.4 4,4.7 4.7,6.8 0.8,2.1 0.8,4.1 0.1,6.1 -0.7,2 -2.3,4.1 -4.6,6.4 l -3,2.9 -19.2,-19.6 c 0.8,-0.9 2.1,-2.2 3.7,-3.8 2,-2 3.9,-3.3 5.8,-3.9 0.9,-0.3 1.9,-0.5 2.9,-0.4 z m -42.1,31.2 -29.1,38.7 2.6,1.9 c 1,-0.8 1.9,-1.3 2.6,-1.6 0.7,-0.3 1.5,-0.4 2.2,-0.3 0.7,0.1 1.5,0.4 2.4,1 0.9,0.5 2,1.3 3.2,2.2 l 33.7,25.3 c 1.2,0.9 2.3,1.8 3,2.5 0.7,0.7 1.3,1.4 1.6,2.1 0.3,0.7 0.4,1.4 0.3,2.2 -0.1,0.8 -0.4,1.7 -0.9,2.9 l 2.6,1.9 28.8,-38.4 -13.7,-11.4 -4,5.3 c 1.3,1.7 2.3,3.1 2.9,4.2 0.6,1.1 1.1,2 1.4,2.8 0.3,0.8 0.5,1.6 0.7,2.4 0.2,0.8 0.2,1.6 0.1,2.3 -0.1,0.7 -0.3,1.4 -0.6,2.1 -0.4,0.7 -0.9,1.5 -1.6,2.4 l -6.4,8.5 -20.9,-15.7 3.9,-5.2 c 0.9,-1.2 1.8,-2 2.6,-2.4 0.8,-0.4 1.8,-0.5 2.9,-0.3 1.1,0.1 2.6,0.6 4.3,1.4 l 3.3,-4.4 -15.9,-11.9 -3.3,4.4 c 1.3,1.6 2.2,2.9 2.6,3.9 0.4,1 0.6,1.9 0.4,2.8 -0.2,0.9 -0.7,1.9 -1.6,3 l -3.9,5.2 -18.7,-14.1 6.4,-8.5 c 1.5,-2 2.8,-3.2 4,-3.7 1.1,-0.5 2.3,-0.7 3.7,-0.6 1.3,0 3.5,0.6 6.6,1.6 l 4,-5.3 z m 588.2,0.5 -13.8,10.2 4,5.4 c 1.4,-0.6 2.9,-1.1 4.5,-1.6 1.7,-0.5 3.1,-0.8 4.3,-0.8 1.2,0.1 2.4,0.4 3.4,0.9 1,0.6 2.1,1.6 3.2,3.2 l 2.3,3.2 -39.2,28.8 c -1.3,0.9 -2.4,1.7 -3.3,2.2 -0.9,0.5 -1.7,0.9 -2.5,0.9 -0.8,0.1 -1.6,-0.1 -2.4,-0.5 -0.8,-0.4 -1.6,-1.1 -2.6,-2.1 l -2.6,1.9 16,21.7 2.6,-1.9 c -0.5,-1 -0.9,-1.9 -1.1,-2.6 -0.1,-0.7 -0.2,-1.3 -0.2,-1.8 0.1,-0.5 0.3,-1 0.6,-1.6 0.3,-0.5 0.8,-1.1 1.4,-1.7 0.7,-0.6 1.7,-1.4 3.1,-2.5 l 39.2,-28.8 2.1,2.8 c 0.8,1.1 1.4,2 1.7,2.7 0.4,0.8 0.6,1.4 0.7,2.1 0.1,0.6 0.1,1.3 -0,2 -0.1,0.7 -0.3,1.4 -0.7,2.2 -0.3,0.8 -0.8,1.6 -1.4,2.5 -0.6,0.9 -1.7,2.3 -3.1,4.1 l 4,5.4 13.8,-10.2 z m -621.4,61.6 c -0.9,0 -1.8,0.1 -2.7,0.3 -1.8,0.4 -3.5,1.1 -5.1,2.1 -1.9,1.2 -3.8,2.9 -5.5,5.1 -1.8,2.1 -3.5,4.8 -5.4,8.2 l -13.6,25 2.8,1.5 c 0.9,-0.9 1.7,-1.6 2.4,-2 0.7,-0.4 1.4,-0.7 2.1,-0.6 0.7,-0 1.6,0.2 2.5,0.7 1,0.4 2.1,1 3.5,1.7 l 37,20 c 1.4,0.7 2.5,1.4 3.4,2 0.8,0.6 1.5,1.2 1.9,1.8 0.4,0.6 0.6,1.3 0.6,2.1 -0,0.8 -0.2,1.8 -0.4,3 l 2.8,1.5 12.2,-22.5 -2.8,-1.5 c -1.2,1.3 -2.3,2.1 -3.1,2.4 -0.8,0.3 -1.7,0.3 -2.7,0 -1,-0.3 -2.5,-1 -4.7,-2.1 l -13.8,-7.5 1.3,-2.5 c 0.9,-1.6 1.7,-2.6 2.4,-3.2 0.8,-0.6 1.8,-1 3.1,-1.2 1.3,-0.2 3.3,-0.2 6,-0.1 l 9.2,0.6 c 5.7,0.4 10.1,0.3 13.3,-0.1 l 9,-16.5 -2.8,-1.5 c -1.2,1.5 -2.7,2.5 -4.7,3 -2,0.5 -4.6,0.6 -7.8,0.4 l -7.3,-0.5 c -3,-0.2 -5.6,0.1 -7.8,0.6 -2.3,0.5 -4.5,1.6 -6.5,3.2 l -0.4,-0.2 c 0.3,-3.4 0.3,-6.3 -0.1,-8.7 -0.4,-2.4 -1.4,-4.7 -2.9,-6.7 -1.5,-2.1 -3.6,-3.9 -6.4,-5.4 -2.1,-1.2 -4.2,-1.9 -6.1,-2.2 -1,-0.2 -1.9,-0.2 -2.8,-0.2 z m 655.5,2.9 c -3,-0.1 -6,0.7 -9.1,2.4 -2.1,1.2 -3.9,2.6 -5.2,4.2 -1.3,1.6 -2.4,3.5 -3.2,5.6 -0.7,2.1 -1.2,4.3 -1.4,6.8 -0.2,2.5 -0.3,5.1 -0.2,7.9 0.1,3.3 -0,6 -0.4,8.1 -0.4,2.1 -1,3.8 -2,5.2 -0.9,1.4 -2.3,2.5 -4.1,3.5 -1.9,1 -3.7,1.5 -5.5,1.4 -1.7,-0.1 -3.2,-0.7 -4.5,-1.7 -1.3,-1 -2.4,-2.4 -3.3,-4.1 -1.8,-3.2 -2.3,-6.1 -1.5,-8.7 0.8,-2.6 2.7,-5.1 5.7,-7.7 l -3.2,-5.9 -13.2,7.2 c 0.9,3.1 2,6.3 3.4,9.6 1.4,3.4 2.9,6.5 4.5,9.4 2.2,4.1 4.9,7.3 7.9,9.7 3.1,2.4 6.4,3.6 9.8,3.9 3.5,0.2 7,-0.6 10.5,-2.6 2.7,-1.5 4.9,-3.3 6.4,-5.4 1.6,-2.1 2.7,-4.6 3.3,-7.6 0.7,-3 1,-6.7 0.9,-11.2 -0.1,-3.7 0,-6.6 0.4,-8.8 0.3,-2.2 0.9,-3.9 1.8,-5.2 0.9,-1.3 2.2,-2.4 3.8,-3.3 1.6,-0.9 3.2,-1.2 4.7,-1.1 1.5,0.1 3,0.7 4.2,1.6 1.3,1 2.4,2.3 3.2,3.9 1,1.9 1.6,3.7 1.6,5.3 0.1,1.6 -0.4,3.2 -1.3,4.7 -0.8,1.6 -2.3,3.2 -4.2,5 l 3.2,5.9 12.4,-6.8 c -0.9,-3.3 -1.9,-6.2 -2.9,-8.7 -1,-2.5 -2.2,-5 -3.5,-7.5 -2.4,-4.3 -5.1,-7.8 -8.2,-10.4 -3,-2.6 -6.3,-4.1 -9.7,-4.5 -0.4,-0.1 -0.9,-0.1 -1.3,-0.1 z m -660.8,10.9 c 2.4,-0 5,0.7 8,2.3 1.8,1 3.3,2 4.6,3.2 1.3,1.1 2.3,2.4 2.9,3.9 0.6,1.4 0.8,3.1 0.7,4.9 -0.2,1.8 -0.9,3.9 -2.2,6.2 l -2.3,4.3 -23.9,-12.9 c 0.4,-0.8 1.2,-2.4 2.5,-4.9 2,-3.6 4.4,-5.8 7.3,-6.6 0.7,-0.2 1.5,-0.3 2.3,-0.3 z m -31.7,41.5 c -1.9,2.9 -3.5,5.5 -4.7,7.9 -1.2,2.3 -2.4,4.9 -3.4,7.6 -1.8,4.6 -2.6,9 -2.6,13 0,4 1,7.4 2.9,10.3 1.9,2.9 4.7,5 8.5,6.4 2.3,0.9 4.5,1.3 6.6,1.3 2.1,-0.1 4.2,-0.5 6.3,-1.2 2,-0.8 4.1,-1.9 6.1,-3.3 2,-1.4 4.1,-3.1 6.1,-5 2.5,-2.2 4.6,-3.9 6.4,-5 1.8,-1.1 3.6,-1.7 5.3,-1.9 1.6,-0.2 3.4,0.1 5.3,0.8 2,0.8 3.6,1.9 4.6,3.3 1,1.4 1.6,2.9 1.6,4.5 0.1,1.7 -0.2,3.4 -0.9,5.2 -1.3,3.4 -3.2,5.7 -5.6,6.8 -2.5,1.1 -5.7,1.3 -9.6,0.7 l -2.4,6.3 14.1,5.4 c 1.8,-2.7 3.5,-5.7 5.1,-8.9 1.7,-3.2 3.1,-6.4 4.2,-9.5 1.7,-4.4 2.4,-8.5 2.2,-12.3 -0.2,-3.9 -1.4,-7.2 -3.5,-10 -2.1,-2.8 -5,-4.9 -8.8,-6.3 -2.9,-1.1 -5.7,-1.6 -8.3,-1.4 -2.6,0.2 -5.2,1 -7.9,2.4 -2.7,1.4 -5.7,3.6 -9.1,6.6 -2.8,2.5 -5,4.3 -6.9,5.4 -1.9,1.1 -3.6,1.8 -5.1,2 -1.6,0.2 -3.2,-0.1 -5,-0.8 -1.7,-0.6 -3,-1.6 -3.9,-2.8 -0.9,-1.3 -1.4,-2.7 -1.5,-4.3 -0.1,-1.6 0.2,-3.3 0.9,-5 0.8,-2 1.8,-3.6 2.9,-4.7 1.2,-1.1 2.7,-1.8 4.4,-2.1 1.7,-0.4 3.9,-0.4 6.6,-0.1 l 2.4,-6.3 z m 710.3,0.7 c -5.1,0.1 -10.5,1.2 -16.3,3.5 -7,2.8 -12.5,6 -16.3,9.7 -3.8,3.7 -6.1,8 -6.8,12.9 -0.7,4.9 0.2,10.5 2.7,16.8 1.2,3 2.5,5.8 3.9,8.4 1.5,2.6 3.2,5.4 5.3,8.4 l 13.8,-5.4 -2.5,-6.2 c -2.9,0.5 -5.3,0.6 -7.1,0.3 -1.8,-0.2 -3.4,-0.9 -4.7,-2 -1.3,-1.1 -2.4,-2.8 -3.2,-5 -1.7,-4.3 -0.9,-8.5 2.6,-12.4 3.4,-4 9.4,-7.6 17.7,-10.9 9,-3.6 16.3,-5 21.8,-4.4 5.6,0.6 9.3,3.3 11.2,8.1 1,2.5 1,4.9 -0,7.1 -1,2.2 -3,4.4 -6.2,6.4 l 2.4,6.2 13.2,-5.2 c -0.3,-3 -0.8,-5.8 -1.4,-8.4 -0.6,-2.6 -1.6,-5.5 -2.8,-8.5 -2.4,-6 -5.7,-10.7 -10.1,-14 -4.3,-3.3 -9.4,-5.1 -15.2,-5.4 -0.7,-0 -1.4,-0.1 -2.2,-0 z m 38.2,50.8 -3.1,0.8 c -0,1.3 -0.2,2.3 -0.4,3.1 -0.2,0.8 -0.6,1.4 -1.2,1.9 -0.5,0.5 -1.3,0.9 -2.3,1.2 -1,0.3 -2.2,0.7 -3.7,1 l -40.9,9.8 c -1.5,0.4 -2.8,0.6 -3.8,0.8 -1,0.1 -1.9,0.1 -2.6,-0.1 -0.7,-0.2 -1.3,-0.5 -1.9,-1.2 -0.5,-0.6 -1.1,-1.4 -1.7,-2.5 l -3.1,0.8 6,24.9 3.1,-0.8 c 9.6e-4,-1 0.1,-1.8 0.2,-2.5 0.2,-0.7 0.4,-1.3 0.7,-1.8 0.3,-0.4 0.8,-0.8 1.3,-1.2 0.6,-0.3 1.3,-0.6 2.2,-0.9 0.9,-0.3 2,-0.6 3.1,-0.8 l 19,-4.6 5.2,21.5 -19,4.6 c -2.7,0.6 -4.5,1 -5.4,1 -0.9,-0 -1.7,-0.2 -2.3,-0.7 -0.6,-0.4 -1.4,-1.5 -2.3,-3.2 l -3.1,0.8 6,24.8 3.1,-0.8 c 0,-1.8 0.2,-3.1 0.7,-3.8 0.4,-0.8 1.1,-1.4 1.9,-1.8 0.9,-0.4 2.5,-0.9 5,-1.5 l 40.9,-9.8 c 1.7,-0.4 3,-0.7 3.8,-0.8 0.8,-0.1 1.6,-0.1 2.4,-0 0.7,0.1 1.4,0.5 1.9,1 0.6,0.5 1.3,1.4 2,2.7 l 3.1,-0.8 -6,-24.8 -3.1,0.8 c -0.1,1.8 -0.3,3.1 -0.8,3.9 -0.4,0.8 -1.1,1.4 -2,1.8 -0.9,0.4 -2.5,1 -4.9,1.5 l -15.9,3.8 -5.2,-21.5 15.9,-3.8 c 2.4,-0.6 4.1,-0.9 5.1,-0.8 1,0 1.9,0.3 2.6,0.7 0.7,0.5 1.5,1.5 2.4,3.1 l 3.1,-0.8 z m -769.5,1.7 -11.8,47 3.1,0.8 c 0.6,-1.1 1.2,-2 1.8,-2.5 0.6,-0.6 1.2,-1 1.9,-1.1 0.7,-0.2 1.6,-0.2 2.6,0 1,0.2 2.3,0.4 3.8,0.8 l 40.8,10.3 c 1.5,0.4 2.8,0.7 3.8,1.1 1,0.3 1.7,0.8 2.3,1.3 0.6,0.5 0.9,1.1 1.1,1.9 0.2,0.8 0.3,1.8 0.3,3 l 3.1,0.8 11.7,-46.5 -17.1,-5.2 -1.6,6.5 c 1.8,1.1 3.3,2 4.3,2.7 1,0.8 1.8,1.4 2.4,2.1 0.6,0.6 1.1,1.2 1.6,2 0.5,0.7 0.8,1.4 1,2.1 0.2,0.7 0.3,1.4 0.2,2.2 -0.1,0.8 -0.2,1.7 -0.5,2.8 l -2.6,10.3 -25.3,-6.4 1.6,-6.3 c 0.4,-1.5 0.9,-2.5 1.4,-3.2 0.6,-0.7 1.5,-1.1 2.6,-1.4 1.1,-0.3 2.6,-0.4 4.5,-0.4 l 1.3,-5.4 -19.2,-4.8 -1.3,5.3 c 1.8,1 3.1,1.8 3.9,2.6 0.8,0.7 1.3,1.6 1.5,2.4 0.2,0.9 0.1,2 -0.3,3.4 l -1.6,6.2 -22.7,-5.7 2.6,-10.3 c 0.6,-2.4 1.4,-4.1 2.2,-4.9 0.9,-0.9 1.9,-1.5 3.2,-2 1.2,-0.5 3.5,-0.8 6.7,-1.1 l 1.6,-6.5 z m 10.6,66.1 c -1.9,-5.3e-4 -3.7,0.1 -5.4,0.3 -3.4,0.5 -6.5,1.4 -9.2,2.9 -2.7,1.4 -5.1,3.5 -7.3,6.1 -2.1,2.6 -3.8,5.7 -5.1,9.2 -1.2,3.5 -2.2,8 -2.8,13.4 l -2.8,25.2 3.2,0.4 c 0.5,-1.2 0.9,-2.1 1.4,-2.7 0.5,-0.7 1,-1.1 1.7,-1.4 0.7,-0.3 1.6,-0.4 2.6,-0.3 1,0 2.3,0.1 3.8,0.3 l 41.8,4.7 c 1.6,0.2 2.8,0.4 3.9,0.6 1,0.2 1.8,0.5 2.4,1 0.6,0.4 1.1,1 1.4,1.7 0.3,0.7 0.5,1.7 0.7,2.9 l 3.2,0.4 2.5,-22 c 0.6,-5.2 0.8,-9.6 0.6,-13.1 -0.2,-4.1 -1,-7.7 -2.3,-10.9 -1.3,-3.3 -3.1,-6.1 -5.4,-8.5 -2.6,-2.7 -5.8,-4.8 -9.7,-6.4 -3.9,-1.6 -8.3,-2.8 -13.4,-3.3 -2.1,-0.2 -4.1,-0.4 -6,-0.4 z m 775.6,9 -3.2,0.3 c -0.2,1.3 -0.5,2.3 -0.8,3 -0.3,0.8 -0.8,1.3 -1.4,1.7 -0.6,0.4 -1.4,0.7 -2.5,0.9 -1,0.2 -2.3,0.4 -3.8,0.5 l -41.8,4.3 c -1.6,0.2 -2.9,0.2 -3.9,0.3 -1,0 -1.9,-0.1 -2.6,-0.4 -0.7,-0.3 -1.3,-0.7 -1.7,-1.4 -0.5,-0.6 -0.9,-1.5 -1.4,-2.7 l -3.2,0.3 4.8,46.3 19.7,-1 -0.7,-6.7 c -1.8,-0.2 -3.6,-0.5 -5.7,-0.9 -2,-0.4 -3.7,-0.9 -5,-1.6 -1.3,-0.7 -2.3,-1.6 -3,-2.6 -0.7,-1.1 -1.1,-2.5 -1.3,-4.4 l -1,-9.4 48.4,-5 c 1.6,-0.2 2.8,-0.2 3.9,-0.2 1,0 1.9,0.2 2.6,0.5 0.7,0.3 1.2,0.8 1.7,1.4 0.5,0.6 0.9,1.5 1.4,2.7 l 3.2,-0.3 z m -776.8,6.7 c 2,-0 4.2,0.1 6.5,0.4 5.6,0.6 10.3,1.7 14,3.3 3.4,1.5 6.2,3.4 8.1,5.7 1.2,1.4 2.1,3.1 2.7,5 0.8,2.5 0.9,5.6 0.5,9.2 -0.3,2.4 -0.5,3.8 -0.6,4.4 l -54.6,-6.2 c 0,-0.9 0.2,-2.3 0.4,-4.3 0.5,-4.2 1.8,-7.6 4.1,-10.4 2.2,-2.8 5.5,-4.8 9.8,-6 2.6,-0.7 5.7,-1.1 9.1,-1.1 z m 715.9,47.4 -0.4,20.8 3.2,0.1 c 0.3,-3.4 2,-5 5.2,-5 1.4,0 2.7,0.2 3.8,0.5 1.2,0.3 2.5,0.7 3.8,1.2 l 4.6,1.7 -0.4,20.8 -4.8,1.2 c -1.9,0.5 -3.5,0.8 -4.7,1 -1.2,0.2 -2.4,0.3 -3.4,0.3 -1.4,-0 -2.4,-0.5 -3.2,-1.3 -0.7,-0.8 -1.2,-2.1 -1.3,-3.8 l -3.2,-0.1 -0.5,26.9 3.2,0.1 c 0.3,-1.4 0.8,-2.5 1.4,-3.2 0.7,-0.8 1.5,-1.4 2.5,-1.9 1.1,-0.5 2.8,-1 5.3,-1.7 l 55,-15.1 0.2,-13 -53.8,-21.4 c -2.3,-0.9 -4.1,-1.7 -5.3,-2.5 -1.2,-0.8 -2.2,-1.6 -2.9,-2.5 -0.7,-0.9 -1.1,-2 -1.2,-3.2 z m -744.6,9.7 -3.2,0.1 0.5,18.4 3.2,-0.1 c 0.4,-1.3 0.7,-2.3 1,-2.9 0.3,-0.6 0.7,-1.1 1.2,-1.4 0.5,-0.4 1.2,-0.7 2.1,-0.8 0.9,-0.2 2.5,-0.3 4.6,-0.4 l 9.1,-0.3 c 9.2,-0.3 17.7,-0.7 25.5,-1.3 l 0,0.8 c -2.8,1.4 -5.8,3 -9,4.9 -3.2,1.8 -5.7,3.3 -7.5,4.4 l -29.5,18.1 0.6,19.8 3.2,-0.1 c 0.4,-1.7 0.9,-2.9 1.5,-3.6 0.6,-0.7 1.4,-1.2 2.3,-1.4 0.9,-0.3 2.6,-0.4 5,-0.5 l 42.2,-1.2 c 1.5,-0 2.8,-0 3.8,0 1,0.1 1.9,0.3 2.6,0.6 0.7,0.3 1.2,0.8 1.6,1.5 0.4,0.7 0.8,1.6 1.2,2.8 l 3.2,-0.1 -0.5,-18.4 -3.2,0.1 c -0.4,1.8 -0.9,3 -1.4,3.7 -0.6,0.6 -1.3,1.1 -2.3,1.4 -1,0.3 -2.7,0.4 -5.1,0.5 L 82.8,555.7 c -7.8,0.2 -15.2,0.6 -22.1,1.1 l -0,-0.4 c 2.9,-1.5 6.9,-3.8 11.9,-6.9 l 37.3,-23.1 -0.4,-12.4 -54.4,1.6 c -2,0.1 -3.6,0 -4.5,-0.2 -1,-0.2 -1.8,-0.4 -2.3,-0.8 -0.5,-0.4 -0.9,-0.8 -1.2,-1.3 -0.3,-0.5 -0.7,-1.5 -1.2,-2.8 z m 770.6,11.6 27.3,10.3 -27.6,7.3 z m -27.6,46.4 -2.9,18.2 3.2,0.5 c 0.7,-1.7 1.4,-2.8 2.1,-3.3 0.7,-0.5 1.5,-0.8 2.5,-0.9 1,-0.1 2.7,0.1 5.1,0.5 l 15.5,2.4 c 7.7,1.2 15,2.2 22,3 l -0.1,0.4 c -3.1,0.9 -7.4,2.5 -13,4.6 l -40.9,15.8 -1.9,12.3 53.7,8.5 c 2,0.3 3.5,0.6 4.4,1 1,0.3 1.7,0.7 2.1,1.2 0.4,0.5 0.7,1 0.9,1.5 0.2,0.6 0.4,1.6 0.6,2.9 l 3.2,0.5 2.9,-18.2 -3.2,-0.5 c -0.6,1.3 -1.1,2.1 -1.5,2.6 -0.4,0.5 -0.9,0.9 -1.4,1.2 -0.5,0.3 -1.3,0.4 -2.2,0.4 -1,0 -2.5,-0.1 -4.6,-0.5 l -9,-1.4 c -9.1,-1.4 -17.5,-2.6 -25.3,-3.4 l 0.1,-0.8 c 3,-0.9 6.3,-1.9 9.7,-3.1 3.5,-1.2 6.2,-2.2 8.2,-3 l 32.3,-12.4 3.1,-19.5 -3.2,-0.5 c -0.7,1.6 -1.4,2.7 -2.1,3.3 -0.7,0.6 -1.6,0.9 -2.5,0.9 -0.9,0.1 -2.6,-0.1 -5,-0.4 l -41.7,-6.6 c -1.5,-0.2 -2.8,-0.5 -3.7,-0.7 -1,-0.3 -1.8,-0.6 -2.4,-1.1 -0.6,-0.4 -1,-1 -1.3,-1.8 -0.3,-0.7 -0.5,-1.7 -0.6,-3 z M 96.8,582 c -2.3,0 -5,0.3 -8,0.8 l -30.1,5.1 c -1.5,0.3 -2.8,0.4 -3.8,0.5 -1,0.1 -1.9,-0 -2.6,-0.2 -0.7,-0.2 -1.3,-0.7 -1.8,-1.3 -0.5,-0.6 -1,-1.5 -1.5,-2.6 l -3.2,0.5 3.6,21.2 3.2,-0.5 c 0.2,-1.8 0.5,-3.1 1,-3.8 0.5,-0.7 1.2,-1.2 2.1,-1.6 0.9,-0.4 2.5,-0.8 4.9,-1.2 l 30.7,-5.2 c 4.7,-0.8 8.3,-1.1 10.8,-0.8 2.5,0.2 4.5,1.1 6.1,2.4 1.6,1.4 2.7,3.7 3.2,7 0.4,2.4 0.3,4.4 -0.2,6 -0.5,1.6 -1.5,3 -2.8,4.1 -1.4,1.1 -3.1,2 -5.1,2.7 -2,0.7 -4.3,1.2 -6.8,1.7 l -31.8,5.4 c -1.8,0.3 -3.2,0.5 -4.1,0.5 -1,0 -1.7,-0.1 -2.4,-0.3 -0.6,-0.2 -1.2,-0.6 -1.7,-1.2 -0.5,-0.6 -1.1,-1.5 -1.7,-2.7 l -3.2,0.5 4.3,25.3 3.2,-0.5 c 0.1,-1.3 0.3,-2.3 0.6,-3 0.3,-0.8 0.7,-1.4 1.3,-1.8 0.6,-0.5 1.4,-0.8 2.4,-1.1 1,-0.3 2.3,-0.5 3.8,-0.8 l 31.1,-5.3 c 4.3,-0.7 7.7,-1.8 10.3,-3.2 2.6,-1.4 4.6,-3.3 6.2,-5.6 1.6,-2.3 2.5,-5.1 3,-8.4 0.4,-3.3 0.2,-7.2 -0.6,-11.8 -0.5,-3.1 -1.3,-5.9 -2.2,-8.3 -0.9,-2.4 -2.1,-4.5 -3.6,-6.3 -1.5,-1.8 -3.2,-3.3 -5.3,-4.3 -2.1,-1 -4.5,-1.6 -7.2,-1.8 -0.7,-0 -1.4,-0.1 -2.2,-0.1 z m 681.5,51.5 -6.6,21.2 c -1.6,5 -2.6,9.2 -3,12.7 -0.5,4 -0.5,7.7 0.2,11.2 0.7,3.4 1.9,6.6 3.7,9.3 2,3.1 4.8,5.8 8.3,8.2 3.5,2.4 7.7,4.3 12.5,5.8 4,1.3 7.7,2 11.1,2.1 3.5,0.2 6.6,-0.2 9.6,-1.1 2.9,-0.9 5.7,-2.4 8.3,-4.6 2.6,-2.2 4.8,-4.9 6.7,-8.1 1.9,-3.2 3.6,-7.4 5.3,-12.6 l 7.6,-24.2 -3.1,-1 c -0.7,1.1 -1.3,1.9 -1.9,2.4 -0.6,0.6 -1.2,0.9 -2,1 -0.7,0.1 -1.6,0.1 -2.6,-0.2 -1,-0.2 -2.3,-0.6 -3.7,-1 l -40.2,-12.5 c -1.5,-0.5 -2.7,-0.9 -3.7,-1.3 -0.9,-0.4 -1.7,-0.9 -2.2,-1.4 -0.5,-0.5 -0.9,-1.2 -1,-2 -0.1,-0.8 -0.2,-1.8 -0.1,-3 z m -666.6,9.9 c -2.1,0 -4.3,0.4 -6.6,1.1 -3.6,1.2 -6.4,3.3 -8.2,6.4 -1.9,3.1 -2.8,7 -2.8,11.8 l -0.4,0.1 c -6.2,-7.3 -12.8,-9.9 -19.8,-7.6 -2.6,0.8 -4.7,2.1 -6.2,3.8 -1.5,1.7 -2.5,3.7 -2.9,5.9 -0.5,2.5 -0.5,5.3 0,8.4 0.4,2.3 1.1,5.2 2.2,8.7 l 9.7,30.5 3.1,-1 c -0.1,-1.3 -0,-2.3 0.2,-3.1 0.2,-0.8 0.5,-1.5 1,-2 0.5,-0.5 1.3,-1 2.2,-1.4 1,-0.4 2.2,-0.8 3.6,-1.3 l 40.1,-12.8 c 1.5,-0.5 2.7,-0.8 3.8,-1 1,-0.2 1.9,-0.3 2.6,-0.1 0.7,0.1 1.4,0.5 2,1 0.5,0.5 1.2,1.3 1.8,2.4 l 3.1,-1 -9.2,-28.7 c -1.4,-4.4 -2.9,-8 -4.5,-10.6 -1.6,-2.7 -3.5,-4.8 -5.6,-6.5 -2.2,-1.7 -4.6,-2.6 -7.2,-2.9 -0.7,-0.1 -1.3,-0.1 -2,-0.1 z m 666.2,11.3 52.4,16.4 c -0.2,0.9 -0.6,2.3 -1.2,4.2 -1.3,4 -3.3,7.2 -6,9.4 -2.7,2.3 -6.3,3.7 -10.7,4 -4.4,0.4 -9.5,-0.4 -15.4,-2.2 -5.4,-1.7 -9.8,-3.7 -13.1,-5.9 -3.1,-2.1 -5.4,-4.5 -6.9,-7.2 -0.9,-1.6 -1.5,-3.4 -1.7,-5.4 -0.3,-2.6 0.1,-5.7 1.2,-9.1 0.7,-2.3 1.2,-3.7 1.5,-4.2 z m -662.7,3.1 c 1,-0 1.8,0 2.6,0.2 2.1,0.5 3.9,1.6 5.2,3.2 1.3,1.7 2.4,4 3.4,6.9 0.8,2.4 1.4,4.5 1.9,6.4 l -24.7,7.9 -2.1,-6.5 c -0.7,-2.3 -1.1,-4.3 -1.2,-6 -0.1,-1.7 0.2,-3.3 0.9,-4.7 0.6,-1.4 1.6,-2.7 3.1,-3.7 1.4,-1.1 3.2,-2 5.5,-2.7 2,-0.6 3.8,-1 5.3,-1 z m -29.3,10.3 c 0.6,0 1.1,0.1 1.6,0.2 1.9,0.4 3.6,1.3 5.1,2.8 1.5,1.5 2.7,3.8 3.7,6.9 l 2,6.2 -22.1,7.1 c -0.8,-2 -1.6,-4.1 -2.3,-6.3 -0.9,-2.7 -1.3,-5.1 -1.2,-7.1 0.1,-2 0.7,-3.8 1.9,-5.3 1.2,-1.5 3,-2.6 5.6,-3.4 2.2,-0.7 4.1,-1 5.8,-1 z" font-family="Cambria" font-size="100px" font-weight="700" letter-spacing="-2.5px"/><path d="m 679.3,826.7 -42.8,38.3 11.4,12.8 5,-4.5 c -0.7,-1.3 -1.4,-2.8 -2.1,-4.4 -0.7,-1.6 -1.1,-3 -1.2,-4.2 -0.1,-1.2 0.1,-2.4 0.6,-3.4 0.5,-1 1.4,-2.2 2.9,-3.5 l 2.9,-2.6 32.4,36.3 c 1,1.2 1.9,2.2 2.5,3 0.6,0.8 1,1.6 1.2,2.4 0.2,0.8 0.1,1.6 -0.3,2.4 -0.3,0.8 -0.9,1.7 -1.8,2.8 l 2.1,2.4 20.1,-18 -2.1,-2.4 c -1,0.6 -1.8,1.1 -2.5,1.3 -0.7,0.2 -1.3,0.3 -1.8,0.3 -0.5,-0 -1,-0.2 -1.6,-0.4 -0.6,-0.2 -1.2,-0.7 -1.8,-1.2 -0.7,-0.6 -1.6,-1.6 -2.7,-2.9 l -32.4,-36.3 2.6,-2.3 c 1,-0.9 1.8,-1.5 2.6,-2 0.7,-0.5 1.4,-0.8 2,-0.9 0.6,-0.2 1.3,-0.2 1.9,-0.2 0.7,0 1.4,0.2 2.3,0.5 0.8,0.2 1.7,0.6 2.7,1.2 1,0.5 2.4,1.4 4.3,2.7 l 5,-4.5 z m -452.9,5.7 -2.1,2.4 c 0.7,1.1 1.2,2 1.5,2.7 0.3,0.8 0.3,1.5 0.2,2.2 -0.2,0.7 -0.5,1.5 -1.2,2.3 -0.6,0.9 -1.4,1.9 -2.4,3 l -27.4,31.9 c -1,1.2 -1.9,2.1 -2.7,2.9 -0.7,0.7 -1.5,1.2 -2.2,1.5 -0.7,0.3 -1.4,0.3 -2.2,0.2 -0.8,-0.2 -1.7,-0.5 -2.8,-1.1 l -2.1,2.4 22.8,19.6 c 3.5,3 6.7,5.3 9.4,6.7 2.8,1.4 5.5,2.3 8.2,2.6 2.7,0.3 5.3,-0.1 7.7,-1.3 2.4,-1.1 4.7,-2.9 6.8,-5.4 2.5,-2.9 3.7,-6.1 3.6,-9.8 -0,-3.6 -1.3,-7.5 -3.8,-11.5 l 0.3,-0.3 c 9.1,3 16.1,1.7 20.9,-3.9 1.8,-2.1 2.9,-4.2 3.3,-6.5 0.4,-2.2 0.2,-4.4 -0.6,-6.6 -0.9,-2.4 -2.4,-4.7 -4.4,-7.1 -1.5,-1.8 -3.7,-3.9 -6.4,-6.2 z m 11.6,17.8 c 1.7,1.3 3.5,2.7 5.2,4.1 2.2,1.9 3.8,3.7 4.8,5.5 1,1.8 1.4,3.6 1.1,5.5 -0.2,1.9 -1.2,3.8 -3,5.9 -2,2.3 -3.9,3.8 -5.8,4.5 -1.8,0.7 -3.8,0.8 -5.8,0.3 -2,-0.5 -4.3,-1.8 -6.7,-3.9 l -4.9,-4.2 z m 396.7,15.9 -39.8,25.5 1.7,2.7 c 1.2,-0.4 2.2,-0.6 3,-0.6 0.8,-0.1 1.5,0.1 2.2,0.5 0.7,0.4 1.3,1 1.9,1.8 0.6,0.8 1.4,1.9 2.2,3.2 l 22.7,35.4 c 0.8,1.3 1.5,2.4 2,3.4 0.5,0.9 0.8,1.8 0.8,2.5 0.1,0.7 -0.1,1.4 -0.5,2.2 -0.4,0.7 -1,1.5 -1.8,2.4 l 1.7,2.7 22.1,-14.2 -1.7,-2.7 c -1,0.5 -1.9,0.8 -2.6,0.9 -0.7,0.1 -1.3,0.1 -1.8,0.1 -0.5,-0.1 -1,-0.3 -1.5,-0.7 -0.5,-0.3 -1.1,-0.8 -1.6,-1.5 -0.6,-0.7 -1.3,-1.8 -2.3,-3.3 l -9.8,-15.3 5.3,-3.4 c 1.3,-0.8 2.4,-1.2 3.3,-1.3 0.9,-0.1 1.9,0.2 3,0.9 1.1,0.6 2.3,1.7 3.7,3.2 l 4.6,-3 -11.5,-17.9 -4.6,3 c 0.8,1.9 1.2,3.5 1.4,4.7 0.2,1.2 0,2.3 -0.4,3.1 -0.4,0.8 -1.3,1.6 -2.6,2.5 l -5.3,3.4 -13.4,-20.9 7.9,-5.1 c 2.1,-1.4 3.8,-2 5,-2 1.2,-0 2.4,0.2 3.7,0.7 1.2,0.5 3.1,1.8 5.7,3.8 l 5.6,-3.6 z m -415.5,6 5.2,4.4 c 1.9,1.6 3.2,3.1 4.2,4.5 0.9,1.4 1.5,2.9 1.7,4.4 0.2,1.5 0,3.1 -0.6,4.8 -0.6,1.6 -1.7,3.4 -3.2,5.1 -2.2,2.5 -4.3,4.1 -6.4,4.9 -2.1,0.7 -4.1,0.7 -6.2,-0 -2,-0.7 -4.2,-2.1 -6.5,-4.1 -1.9,-1.6 -3.5,-3.1 -4.9,-4.4 z m 63.4,9.1 c -5.3,0 -10.2,1.7 -14.9,5 -4.6,3.3 -8.8,8.1 -12.5,14.4 -5.7,9.6 -7.8,18.1 -6.5,25.3 1.3,7.3 6.1,13.3 14.4,18.2 4,2.3 7.9,3.8 11.8,4.6 3.9,0.7 7.7,0.6 11.5,-0.5 3.7,-1.1 7.3,-3.2 10.8,-6.2 3.5,-3.1 6.8,-7.3 9.9,-12.6 5.6,-9.5 7.7,-17.9 6.3,-25.1 -1.4,-7.3 -6.3,-13.4 -14.7,-18.3 -5.4,-3.2 -10.7,-4.7 -16,-4.7 z m 7.3,7.7 c 1.8,0.1 3.6,0.6 5.4,1.7 2.8,1.6 4.5,3.9 5.1,6.9 0.7,3 0.3,6.6 -1,10.9 -1.3,4.3 -3.6,9.2 -6.9,14.8 -2,3.4 -4.1,6.4 -6.2,9.1 -2.1,2.6 -4.2,4.7 -6.4,6.3 -2.1,1.5 -4.3,2.4 -6.5,2.7 -2.2,0.3 -4.4,-0.2 -6.5,-1.5 -4.2,-2.5 -6.1,-6.3 -5.7,-11.7 0.4,-5.3 3.1,-12.3 8.1,-20.7 4.8,-8.1 9.3,-13.5 13.5,-16.2 2.4,-1.5 4.8,-2.3 7.1,-2.2 z m 283.3,12.3 -12,5.1 2.2,57.9 c 0.1,2.5 0.1,4.4 -0.1,5.8 -0.2,1.4 -0.6,2.7 -1.2,3.7 -0.6,1 -1.4,1.8 -2.4,2.4 l 1.2,3 19.2,-8.1 -1.2,-3 c -3.2,1.1 -5.4,0.2 -6.7,-2.8 -0.5,-1.3 -0.9,-2.5 -1.1,-3.7 -0.2,-1.3 -0.4,-2.6 -0.4,-3.9 l -0.3,-4.9 19.2,-8.1 3.1,3.9 c 1.2,1.5 2.2,2.8 2.9,3.9 0.7,1.1 1.2,2 1.6,3 0.5,1.3 0.6,2.4 0.1,3.4 -0.5,1 -1.4,1.9 -2.9,2.8 l 1.2,3 24.8,-10.4 -1.2,-3 c -1.4,0.3 -2.6,0.3 -3.5,0 -1,-0.3 -1.9,-0.8 -2.7,-1.6 -0.9,-0.8 -2.1,-2.1 -3.7,-4.1 z m -249.6,0 -5.8,16.1 6.3,2.3 c 0.8,-1.3 1.8,-2.6 2.9,-3.9 1.1,-1.4 2.1,-2.4 3.2,-3.1 1.1,-0.7 2.2,-1 3.3,-1.1 1.1,-0.1 2.6,0.2 4.5,0.9 l 3.7,1.3 -16.5,45.8 c -0.5,1.5 -1,2.7 -1.5,3.7 -0.4,0.9 -1,1.7 -1.6,2.2 -0.6,0.5 -1.3,0.8 -2.2,0.9 -0.9,0.1 -2,-0 -3.3,-0.3 l -1.1,3 25.4,9.1 1.1,-3 c -1,-0.5 -1.8,-1 -2.4,-1.5 -0.5,-0.5 -0.9,-1 -1.2,-1.4 -0.2,-0.5 -0.4,-1 -0.4,-1.6 -0.1,-0.6 0,-1.3 0.2,-2.2 0.2,-0.9 0.6,-2.1 1.2,-3.8 l 16.5,-45.8 3.3,1.2 c 1.3,0.5 2.2,0.9 3,1.3 0.8,0.4 1.3,0.8 1.8,1.3 0.4,0.5 0.8,1 1.1,1.6 0.3,0.6 0.5,1.4 0.7,2.2 0.2,0.8 0.3,1.8 0.3,2.9 -0,1.1 -0.1,2.8 -0.3,5.1 l 6.3,2.3 5.8,-16.1 z m 214,15.5 -25,4.9 0.6,3.2 c 1.8,0.1 3.1,0.5 3.8,0.9 0.8,0.4 1.3,1.1 1.7,2.1 0.4,0.9 0.8,2.5 1.3,5 l 3.2,16 -21.7,4.3 -3.2,-16 c -0.5,-2.5 -0.7,-4.2 -0.6,-5.2 0.1,-1 0.3,-1.9 0.8,-2.6 0.5,-0.7 1.6,-1.5 3.2,-2.3 l -0.6,-3.2 -25.2,5 0.6,3.2 c 1.3,0.1 2.3,0.3 3,0.5 0.8,0.2 1.4,0.7 1.8,1.2 0.5,0.6 0.8,1.4 1.1,2.4 0.3,1 0.6,2.3 0.9,3.8 l 8.1,41.3 c 0.3,1.5 0.5,2.8 0.6,3.9 0.1,1 0,1.9 -0.2,2.6 -0.2,0.7 -0.6,1.3 -1.2,1.8 -0.6,0.5 -1.5,1 -2.6,1.6 l 0.6,3.2 25.2,-5 -0.6,-3.2 c -1,-0 -1.8,-0.1 -2.5,-0.3 -0.7,-0.2 -1.3,-0.5 -1.8,-0.8 -0.4,-0.3 -0.8,-0.8 -1.1,-1.4 -0.3,-0.6 -0.6,-1.3 -0.8,-2.3 -0.3,-0.9 -0.5,-2 -0.7,-3.1 l -3.8,-19.2 21.7,-4.3 3.8,19.2 c 0.5,2.7 0.8,4.5 0.7,5.5 -0.1,0.9 -0.3,1.7 -0.8,2.2 -0.4,0.6 -1.6,1.3 -3.3,2.1 l 0.6,3.2 25,-4.9 -0.6,-3.2 c -1.8,-0.1 -3,-0.4 -3.8,-0.8 -0.8,-0.5 -1.3,-1.1 -1.7,-2 -0.4,-0.9 -0.8,-2.6 -1.3,-5 l -8.1,-41.2 c -0.3,-1.7 -0.6,-3 -0.7,-3.9 -0.1,-0.8 -0,-1.6 0.1,-2.4 0.2,-0.7 0.5,-1.4 1.1,-1.9 0.6,-0.6 1.5,-1.2 2.8,-1.9 z m 30.7,0.8 17.9,22.3 -16.2,6.8 z m -171,5.8 c -2.2,-0 -4.3,0.2 -6.3,0.6 -3.9,0.8 -7.1,2.4 -9.6,4.8 -2.4,2.4 -4,5.6 -4.7,9.5 -0.4,2.4 -0.4,4.6 0,6.7 0.5,2.1 1.3,4 2.4,5.9 1.2,1.9 2.6,3.6 4.4,5.3 1.8,1.7 3.8,3.4 6.1,5.1 2.7,2 4.7,3.8 6.1,5.4 1.4,1.6 2.4,3.2 2.8,4.8 0.5,1.6 0.6,3.4 0.2,5.3 -0.4,2.1 -1.2,3.9 -2.3,5.1 -1.1,1.3 -2.5,2.1 -4.1,2.5 -1.6,0.4 -3.4,0.4 -5.3,0.1 -3.6,-0.6 -6.2,-2 -7.8,-4.2 -1.5,-2.2 -2.4,-5.3 -2.5,-9.3 l -6.6,-1.1 -2.6,14.8 c 3,1.2 6.2,2.4 9.7,3.3 3.5,1 6.9,1.8 10.1,2.4 4.6,0.8 8.8,0.7 12.5,-0.2 3.8,-1 6.8,-2.7 9.1,-5.3 2.3,-2.6 3.8,-5.9 4.5,-9.8 0.5,-3.1 0.5,-5.9 -0.2,-8.4 -0.7,-2.5 -1.9,-5 -3.9,-7.3 -1.9,-2.4 -4.6,-4.9 -8.2,-7.7 -2.9,-2.2 -5.2,-4.1 -6.6,-5.7 -1.5,-1.6 -2.5,-3.2 -3,-4.6 -0.5,-1.5 -0.5,-3.2 -0.2,-5 0.3,-1.8 1,-3.2 2,-4.4 1.1,-1.1 2.4,-1.9 3.9,-2.3 1.6,-0.4 3.2,-0.4 5.1,-0.1 2.1,0.4 3.9,1 5.2,2 1.3,1 2.3,2.3 2.9,3.9 0.7,1.6 1.1,3.8 1.3,6.4 l 6.6,1.1 2.4,-14 c -3.2,-1.3 -6.1,-2.4 -8.6,-3.1 -2.5,-0.8 -5.2,-1.4 -8.1,-1.9 -2.4,-0.4 -4.8,-0.6 -7,-0.7 z m 59.2,4.3 c -6.5,-0 -12,1.4 -16.7,4.2 -4.7,2.8 -8.2,6.8 -10.6,12.1 -2.4,5.2 -3.6,11.3 -3.6,18.4 -0,7.6 1,13.8 3,18.8 2,4.9 5.2,8.6 9.4,11.1 4.3,2.5 9.8,3.7 16.6,3.7 3.2,0 6.3,-0.2 9.2,-0.6 3,-0.4 6.2,-1 9.8,-1.8 l 0,-14.8 -6.7,-0 c -0.7,2.9 -1.4,5.1 -2.4,6.7 -0.9,1.6 -2.1,2.8 -3.6,3.6 -1.5,0.8 -3.4,1.2 -5.8,1.2 -4.7,-0 -8.2,-2.3 -10.6,-7 -2.4,-4.7 -3.6,-11.5 -3.5,-20.5 0,-9.7 1.4,-17 4,-21.9 2.7,-4.9 6.6,-7.4 11.7,-7.4 2.7,0 4.9,0.9 6.6,2.7 1.7,1.7 2.9,4.4 3.7,8.1 l 6.6,0 0,-14.2 c -2.9,-0.8 -5.7,-1.4 -8.3,-1.8 -2.7,-0.4 -5.6,-0.6 -8.9,-0.6 z"/></svg>